# xmcd
#
# Track frame offsets:
#       150
#       29950
#       63820
#       94915
#       121605
#
# Disc length: 2234 seconds
#
# Revision: 1
# Processed by: cddbd v1.5.2PL0 Copyright (c) Steve Scherf et al.
# Submitted via: WhereIsIt 2010
#
DISCID=3c08b805
DTITLE=M People - by personal invitation only
DYEAR=1997
DGENRE=Blues
TTITLE0=Just for you (C-Swing mellow mix)
TTITLE1=Moving on up (MK Movin' mix)
TTITLE2=Excited (Judge Jules remix)
TTITLE3=Search for the hero (Smith and Mighty Searchin' mix)
TTITLE4=Open your heart (Brothers in Rhythm mix)
EXTD=
EXTT0=
EXTT1=
EXTT2=
EXTT3=
EXTT4=
PLAYORDER=
